<?xml version="1.0" encoding="utf-8"?>

<svg version="1.0" xmlns="http://www.w3.org/2000/svg" width="750px" height="750px" viewBox="0 0 750 750" preserveAspectRatio="xMidYMid meet">
 <g fill="#ffffff" stroke="#29603e" stroke-width="0.732">
  <path d="M0 375 l0 -375 375 0 375 0 0 375 0 375 -375 0 -375 0 0 -375z m377.86 203.39 c13.77 -18.46 25.49 -41.60 31.93 -63.50 8.79 -29.66 11.43 -60.57 7.98 -93.46 l-0.44 -4.39 -10.77 6.08 c-5.86 3.37 -17.14 9.30 -24.98 13.18 -59.40 29.15 -67.60 33.47 -82.76 43.65 -31.05 20.80 -52.88 46.22 -62.11 72.36 -4.25 12.16 -6.81 28.86 -6.15 40.43 l0.29 4.25 2.49 -7.47 c4.47 -13.18 10.62 -23.95 20.51 -35.82 16.77 -20.14 42.11 -36.11 89.65 -56.40 18.60 -7.91 21.46 -8.64 22.27 -5.27 1.03 4.17 1.39 37.43 0.51 46.80 -1.83 19.26 -8.35 51.05 -13.18 63.94 l-1.46 4.03 10.40 -10.62 c5.71 -5.86 12.82 -13.92 15.82 -17.80z m-158.20 -55.44 c15.67 -36.40 49.80 -66.94 105.54 -94.41 7.03 -3.52 20.87 -9.96 30.76 -14.36 33.69 -15.09 58.67 -28.20 76.17 -39.92 31.86 -21.46 55.15 -49 66.28 -78.74 2.64 -7.03 5.93 -19.78 7.40 -28.56 1.46 -8.50 1.76 -31.79 0.44 -34.79 -0.59 -1.46 -0.81 -1.54 -0.81 -0.44 -0.15 2.71 -5.20 16.55 -8.57 23.22 -11.50 23 -30.98 43.43 -58.89 61.89 -18.31 12.01 -32.67 19.70 -65.19 34.72 -59.03 27.25 -83.20 42.04 -108.25 66.28 -33.76 32.67 -50.90 70.39 -52.59 115.58 l-0.37 10.40 2.86 -7.69 c1.54 -4.25 3.88 -10.18 5.20 -13.18z m140.70 -195.92 c24.32 -10.77 37.65 -18.02 36.99 -20.14 -0.81 -2.93 -3.44 -17.14 -4.69 -26.15 -2.27 -15.75 -3 -25.78 -3 -41.38 l0 -14.50 3.52 0 3.44 0 2.20 4.54 c3.22 6.67 9.45 16.41 14.06 21.97 4.39 5.42 16.11 15.75 16.92 14.94 0.22 -0.29 -3.08 -11.13 -7.47 -24.10 -9.01 -26.66 -9.96 -29.88 -12.60 -41.16 -4.91 -21.68 -5.93 -44.60 -2.78 -65.19 l0.44 -2.93 -6.37 6.23 c-21.97 21.39 -41.31 50.83 -51.27 77.86 -9.16 25.05 -13.18 57.64 -10.62 85.84 0.81 8.94 2.64 22.27 3.81 27.69 0.88 4.25 -0.73 4.54 17.43 -3.52z"></path>
 </g>
 <g fill="#29603e">
  <path d="M229.69 612.67 c-0.29 -1.98 -0.81 -8.28 -1.17 -13.92 -2.34 -39.11 9.59 -68.99 39.26 -97.78 21.24 -20.58 42.41 -33.69 95.87 -59.18 20.80 -9.89 36.33 -18.02 47.97 -25.05 5.86 -3.59 7.03 -4.03 7.40 -3 1.17 3 2.34 21.61 2.34 36.33 0.07 43.51 -10.18 81.23 -31.27 115.72 -7.03 11.43 -14.43 20.87 -24.98 31.71 -9.96 10.33 -20.87 19.85 -19.78 17.36 8.86 -20.87 16.04 -50.68 18.68 -77.20 1.25 -12.89 0.66 -43.65 -0.95 -45.19 -0.51 -0.59 -35.38 14.79 -49.22 21.68 -27.61 13.77 -44.90 26.22 -57.79 41.75 -13.55 16.26 -21.24 32.67 -24.39 52 -1.39 8.35 -1.39 8.42 -1.98 4.76z"></path>
  <path d="M209.84 551.88 c-2.86 -55.30 13.99 -98.95 52.51 -136.23 25.05 -24.24 49.22 -39.04 108.25 -66.28 24.10 -11.13 33.76 -15.97 46.22 -23.14 32.96 -18.82 54.42 -37.13 69.29 -59.03 9.16 -13.48 15.97 -29.22 17.87 -41.60 1.03 -6.81 1.17 -7.32 2.05 -7.32 1.83 0 4.03 22.41 3.44 34.79 -1.90 39.70 -16.70 71.12 -47.39 101.15 -21.09 20.65 -50.90 38.45 -103.93 62.18 -42.77 19.12 -67.68 33.18 -90.16 50.90 -9.59 7.62 -23.73 21.83 -30.10 30.32 -11.79 15.75 -21.02 36.04 -25.49 56.10 l-1.98 9.16 -0.59 -10.99z"></path>
  <path d="M341.67 337.43 c-0.59 -1.61 -2.56 -13.26 -3.66 -21.75 -1.61 -11.87 -2.27 -39.26 -1.17 -50.98 1.10 -11.87 3.15 -23.51 5.93 -34.35 6.59 -25.71 22.12 -54.86 41.31 -77.64 7.76 -9.16 24.10 -25.27 25.71 -25.27 l1.54 0 -1.32 6.45 c-4.03 20 -3.37 41.75 1.90 64.97 2.56 11.13 4.61 17.94 11.06 36.62 5.71 16.48 12.23 37.79 11.72 38.31 -1.10 1.10 -18.75 -13.70 -24.02 -20.14 -4.61 -5.64 -10.84 -15.38 -14.06 -22.05 -1.46 -2.93 -2.64 -4.54 -3.44 -4.54 -1.17 0 -1.32 1.10 -1.32 12.30 0 18.60 2.12 37.94 6.52 59.69 2.34 11.57 2.64 10.55 -4.25 14.79 -10.62 6.37 -52 24.98 -52.44 23.58z"></path>
 </g>
</svg>